<svg version="1.1" xmlns="http://www.w3.org/2000/svg" xmlns:xlink="http://www.w3.org/1999/xlink" xmlns:a="http://ns.adobe.com/AdobeSVGViewerExtensions/3.0/" x="0px" y="0px" width="295px" height="250px" viewBox="0 0 295 250" style="overflow:scroll;enable-background:new 0 0 295 250;" xml:space="preserve">
<style type="text/css">
	.st0{fill:#FFFFFF;}
</style>
<defs>
</defs>
<g>
	<g>
		<g>
			<path class="st0" d="M141.7,0v178.2c1.2,0,2.5,0,3.7,0V0H141.7z"></path>
			<path class="st0" d="M124.4,63.7l-3.5,2.2l10.9,113.2c1.2-0.2,2.6-0.4,3.7-0.5L124.4,63.7z"></path>
			<path class="st0" d="M112.5,112.8l-3.3,2.4l13.1,66c1.1-0.3,2.4-0.7,3.6-1L112.5,112.8z"></path>
			<path class="st0" d="M102.9,135.4l-3.1,2.6l13.7,46.6c1-0.5,2.5-1.1,3.4-1.5L102.9,135.4z"></path>
			<path class="st0" d="M94.6,150.7l-2.8,2.9l13.7,35.2c1-0.6,2.2-1.3,3.2-1.9L94.6,150.7z"></path>
			<path class="st0" d="M86.7,162.7l-2.7,2.7l14.2,28.7c0.9-0.8,2.1-1.7,2.9-2.3L86.7,162.7z"></path>
			<path class="st0" d="M79,173.1l-2.6,2.6l15.6,24.7c0.7-0.9,1.8-2,2.5-2.7L79,173.1z"></path>
			<path class="st0" d="M151.7,178.6c1.1,0.1,2.5,0.3,3.7,0.5l10.9-113.2l-3.5-2.2L151.7,178.6z"></path>
			<path class="st0" d="M161.2,180.3c1.2,0.3,2.5,0.6,3.6,1l13.1-66l-3.3-2.4L161.2,180.3z"></path>
			<path class="st0" d="M170.1,183.1c0.9,0.4,2.5,1,3.4,1.5l13.7-46.6l-3.1-2.6L170.1,183.1z"></path>
			<path class="st0" d="M178.3,187c1,0.5,2.2,1.2,3.2,1.9l13.7-35.2l-2.8-2.9L178.3,187z"></path>
			<path class="st0" d="M185.9,191.9c0.8,0.6,1.9,1.5,2.9,2.3l14.2-28.7l-2.7-2.7L185.9,191.9z"></path>
			<path class="st0" d="M192.5,197.7c0.7,0.7,1.8,1.8,2.5,2.7l15.6-24.7l-2.6-2.6L192.5,197.7z"></path>
		</g>


	</g>
</g>
</svg>